<svg width="32" height="32" viewBox="0 0 32 32" fill="none" xmlns="http://www.w3.org/2000/svg">
<g clip-path="url(#clip0_161_1806)">
<path d="M25.9998 18.096L15.9998 28L5.99975 18.096C5.34016 17.4542 4.82061 16.6827 4.47381 15.8302C4.12702 14.9777 3.9605 14.0626 3.98473 13.1426C4.00897 12.2226 4.22343 11.3175 4.61463 10.4845C5.00582 9.65142 5.56526 8.90837 6.25773 8.30214C6.9502 7.69591 7.76069 7.23962 8.63817 6.96201C9.51564 6.6844 10.4411 6.59148 11.3562 6.6891C12.2714 6.78672 13.1564 7.07277 13.9556 7.52924C14.7548 7.98571 15.4507 8.6027 15.9998 9.34137C16.5511 8.60806 17.2479 7.99646 18.0466 7.54484C18.8452 7.09322 19.7284 6.8113 20.641 6.71673C21.5536 6.62215 22.4759 6.71696 23.3501 6.99522C24.2244 7.27348 25.0318 7.7292 25.7218 8.33385C26.4119 8.9385 26.9697 9.67908 27.3603 10.5092C27.751 11.3394 27.9661 12.2412 27.9922 13.1583C28.0183 14.0754 27.8548 14.988 27.5119 15.839C27.1691 16.69 26.6543 17.4611 25.9998 18.104" stroke="#D9D9D9" stroke-width="1.5" stroke-linecap="round" stroke-linejoin="round"/>
</g>
<defs>
<clipPath id="clip0_161_1806">
<rect width="32" height="32" fill="white"/>
</clipPath>
</defs>
</svg>
